<svg xmlns="http://www.w3.org/2000/svg" version="1.1" xmlns:xlink="http://www.w3.org/1999/xlink" xmlns:svgjs="http://svgjs.dev/svgjs" width="1500" height="265" viewBox="0 0 1500 265"><g transform="matrix(1,0,0,1,-0.9090909090909918,-0.7766889004288657)"><svg viewBox="0 0 396 70" data-background-color="#ffffff" preserveAspectRatio="xMidYMid meet" height="265" width="1500" xmlns="http://www.w3.org/2000/svg" xmlns:xlink="http://www.w3.org/1999/xlink"><g id="tight-bounds" transform="matrix(1,0,0,1,0.2400000000000091,0.20516310577366426)"><svg viewBox="0 0 395.52 69.58967378845267" height="69.58967378845267" width="395.52"><g><svg viewBox="0 0 495.5068199629237 87.18183141477905" height="69.58967378845267" width="395.52"><g><rect width="6.551789607195664" height="87.18183141477905" x="76.28374866149859" y="0" fill="#161616" opacity="1" stroke-width="0" stroke="transparent" fill-opacity="1" class="rect-qz-0" data-fill-palette-color="primary" rx="1%" id="qz-0" data-palette-color="#161616"></rect></g><g transform="matrix(1,0,0,1,99.98681996292373,7.265152617898252)"><svg viewBox="0 0 395.52 72.65152617898255" height="72.65152617898255" width="395.52"><g id="textblocktransform"><svg viewBox="0 0 395.52 72.65152617898255" height="72.65152617898255" width="395.52" id="textblock"><g><svg viewBox="0 0 395.52 72.65152617898255" height="72.65152617898255" width="395.52"><g transform="matrix(1,0,0,1,0,0)"><svg width="395.52" viewBox="2.81 -35.64 197.22 36.230000000000004" height="72.65152617898255" data-palette-color="#161616"><path d="M2.81-1.49L4.27-5.1Q5.27-4.71 6.38-4.37 7.5-4.03 8.65-3.78 9.81-3.54 10.99-3.39 12.16-3.25 13.28-3.25L13.28-3.25Q15.21-3.25 16.77-3.69 18.33-4.13 19.46-4.97 20.58-5.81 21.19-7.04 21.8-8.28 21.8-9.86L21.8-9.86Q21.8-11.45 21.23-12.46 20.65-13.48 19.57-14.16 18.48-14.84 16.89-15.32 15.31-15.8 13.28-16.31L13.28-16.31Q11.04-16.89 9.14-17.61 7.25-18.33 5.87-19.48 4.49-20.63 3.71-22.33 2.93-24.02 2.93-26.56L2.93-26.56Q2.93-28.64 3.76-30.32 4.59-32.01 6.1-33.19 7.62-34.38 9.74-35.01 11.87-35.64 14.43-35.64L14.43-35.64Q15.67-35.64 16.97-35.49 18.26-35.33 19.53-35.06 20.8-34.79 22.02-34.4 23.24-34.01 24.32-33.54L24.32-33.54 22.85-29.93Q21.97-30.27 21.06-30.62 20.14-30.96 19.12-31.23 18.09-31.49 16.93-31.65 15.77-31.81 14.43-31.81L14.43-31.81Q13.09-31.81 11.87-31.52 10.64-31.23 9.7-30.6 8.76-29.98 8.2-28.98 7.64-27.98 7.64-26.56L7.64-26.56Q7.64-24.98 8.22-23.96 8.79-22.95 9.88-22.27 10.96-21.58 12.55-21.11 14.14-20.63 16.16-20.12L16.16-20.12Q18.41-19.53 20.3-18.81 22.19-18.09 23.57-16.94 24.95-15.8 25.73-14.09 26.51-12.38 26.51-9.86L26.51-9.86Q26.51-7.2 25.52-5.24 24.54-3.27 22.77-1.98 21-0.68 18.57-0.05 16.14 0.59 13.28 0.59L13.28 0.59Q7.89 0.59 2.81-1.49L2.81-1.49ZM36.81-35.11L36.81-9.86Q36.81-7.86 36.86-6.51 36.91-5.15 36.98-4.13L36.98-4.13Q37.06-3.1 37.22-2.27 37.38-1.44 37.62-0.44L37.62-0.44Q36.59-0.17 35.57 0.06 34.54 0.29 33.52 0.46L33.52 0.46Q33.03-1.12 32.82-2.44 32.61-3.76 32.61-5.03L32.61-5.03 32.61-35.11 36.81-35.11ZM47.36-35.23L47.36-35.23Q48.48-35.23 49.31-34.45L49.31-34.45Q50.12-33.59 50.12-32.45L50.12-32.45Q50.12-31.27 49.31-30.47L49.31-30.47Q48.48-29.64 47.36-29.64L47.36-29.64Q46.19-29.64 45.36-30.47L45.36-30.47Q44.53-31.25 44.53-32.45L44.53-32.45Q44.53-33.62 45.36-34.45L45.36-34.45Q46.19-35.23 47.36-35.23ZM45.21 0L45.21-25.39 49.41-25.39 49.41 0 45.21 0ZM74.85-4.32L75.9-0.9Q73.99-0.24 71.83 0.17 69.67 0.59 67.74 0.59L67.74 0.59Q64.81 0.59 62.66-0.27 60.51-1.12 59.11-2.76 57.71-4.39 57.02-6.77 56.34-9.16 56.34-12.21L56.34-12.21Q56.34-15.53 57.18-18.09 58.02-20.65 59.62-22.4 61.22-24.15 63.53-25.05 65.84-25.95 68.77-25.95L68.77-25.95Q70.26-25.95 71.79-25.65 73.33-25.34 74.92-24.88L74.92-24.88 73.87-21.46Q72.6-21.88 71.51-22.12 70.43-22.36 69.23-22.36L69.23-22.36Q65.08-22.36 62.83-19.96 60.59-17.55 60.59-12.7L60.59-12.7Q60.59-10.42 60.92-8.63 61.25-6.84 62.09-5.58 62.93-4.32 64.38-3.66 65.84-3 68.08-3L68.08-3Q69.55-3 71.24-3.38 72.94-3.76 74.85-4.32L74.85-4.32ZM81.92 0L81.92-35.16 86.12-35.16 86.12-14.01 97.55-25.95 100.31-23.27 90.42-13.09 102.9 0 97.67 0 86.12-12.21 86.12 0 81.92 0ZM112.22-17.04L127.89-35.64 130.99-33.15 117.52-17.19 132.17 0 126.65 0 112.22-16.94 112.22 0 107.63 0 107.63-35.11 112.22-35.11 112.22-17.04ZM140.78-20.9L140.78-20.9 139.71-24.32Q143.81-25.95 148.3-25.95L148.3-25.95Q152.23-25.95 154.31-24.63L154.31-24.63Q156.67-23.12 156.67-19.48L156.67-19.48 156.67-9.5Q156.67-7.5 156.72-5.4L156.72-5.4Q156.75-4.15 156.97-2.81L156.97-2.81Q157.16-1.54 157.48-0.39L157.48-0.39 153.48 0.49Q152.91-1.15 152.77-3.17L152.77-3.17 152.28-3.22Q149.25 0.59 144.57 0.59L144.57 0.59Q141.15 0.59 139.07-1.31 137-3.2 137-6.64L137-6.64Q137-9.2 138.13-10.84 139.27-12.48 141.34-13.6L141.34-13.6Q144.61-15.38 150.5-15.38L150.5-15.38Q151.28-15.38 152.6-15.33L152.6-15.33 152.6-19.04Q152.6-20.8 151.52-21.58 150.45-22.36 148.15-22.36L148.15-22.36Q144.81-22.36 140.78-20.9ZM152.6-7.13L152.6-7.13 152.6-12.26Q151.94-12.3 150.67-12.3L150.67-12.3Q148.52-12.3 146.71-11.94L146.71-11.94Q144.03-11.4 142.55-10.24 141.07-9.08 141.07-6.91L141.07-6.91Q141.07-3 145.32-3L145.32-3Q147.52-3 149.42-4.17L149.42-4.17Q150.99-5.15 152.6-7.13ZM169.05-19.51L169.27-19.51Q170.03-21.02 170.89-22.24 171.76-23.46 172.81-24.32L172.81-24.32Q173.76-25.15 174.91-25.55 176.06-25.95 177.52-25.95L177.52-25.95Q178.01-25.95 178.66-25.9 179.3-25.85 179.89-25.73L179.89-25.73Q179.79-24.51 179.66-23.44 179.52-22.36 179.3-21.26L179.3-21.26Q178.08-21.48 177.07-21.58 176.06-21.68 175.15-21.53L175.15-21.53Q174.08-21.34 173.29-20.81 172.49-20.29 171.82-19.42 171.15-18.55 170.51-17.35 169.88-16.14 169.12-14.58L169.12-14.58 169.12 0 164.92 0 164.92-15.65Q164.92-17.19 164.89-18.36 164.85-19.53 164.74-20.59 164.63-21.66 164.41-22.69 164.19-23.73 163.83-25L163.83-25Q164.85-25.27 165.84-25.49 166.83-25.71 167.85-25.9L167.85-25.9Q168.2-24.93 168.4-24.17 168.61-23.41 168.73-22.69 168.85-21.97 168.92-21.23 168.98-20.48 169.05-19.51L169.05-19.51ZM187.28-25.39L187.28-31.2 191.48-31.2 191.48-25.39 200.03-25.39 200.03-21.85 191.48-21.85 191.48-7.28Q191.48-5.81 191.57-5.04 191.65-4.27 192-3.83L192-3.83Q192.63-2.95 194.56-2.95L194.56-2.95Q195.63-2.95 196.64-3.17L196.64-3.17Q197.66-3.39 198.52-3.66L198.52-3.66Q199.2-2.17 199.76-0.39L199.76-0.39Q196.88 0.59 193.95 0.59L193.95 0.59Q191.83 0.59 190.54 0.11 189.26-0.37 188.53-1.44L188.53-1.44Q187.77-2.56 187.53-4.13 187.28-5.69 187.28-8.45L187.28-8.45 187.28-21.85 183.62-21.85 183.62-25.39 187.28-25.39Z" opacity="1" transform="matrix(1,0,0,1,0,0)" fill="#161616" class="wordmark-text-0" data-fill-palette-color="primary" id="text-0"></path></svg></g></svg></g></svg></g></svg></g><g transform="matrix(1,0,0,1,0,8.449372494615666)"><svg viewBox="0 0 59.13246696726911 70.28308642554772" height="70.28308642554772" width="59.13246696726911"><g><svg xmlns="http://www.w3.org/2000/svg" xmlns:xlink="http://www.w3.org/1999/xlink" xmlns:a="http://ns.adobe.com/AdobeSVGViewerExtensions/3.0/" version="1.1" x="0" y="0" viewBox="0 0 31.829 37.83100000000001" enable-background="new -4 -1.012 40 40" xml:space="preserve" height="70.28308642554772" width="59.13246696726911" class="icon-icon-0" data-fill-palette-color="accent" id="icon-0"><path d="M14.325 0H4.338C1.463 0 0 1.463 0 4.338v18.615c0 2.875 1.463 4.338 4.338 4.338h23.153c2.875 0 4.338-1.463 4.338-4.338v-7.314c-2.369 2.169-5.195 3.278-8.472 3.278-3.331 0-6.206-1.109-8.576-3.328-2.373-2.221-3.531-4.894-3.531-8.021C11.25 4.642 12.26 2.121 14.325 0L14.325 0z" fill="#ff851b" data-fill-palette-color="accent"></path><path d="M29.055 2.221C27.543 0.808 25.727 0.052 23.606 0h-0.453c-2.117 0.052-3.934 0.757-5.497 2.221S15.287 5.5 15.287 7.567c0 2.067 0.806 3.883 2.369 5.346 1.563 1.463 3.48 2.221 5.701 2.221 2.218 0 4.134-0.757 5.697-2.221 1.564-1.463 2.373-3.279 2.373-5.346C31.428 5.5 30.619 3.684 29.055 2.221L29.055 2.221z" fill="#ff851b" data-fill-palette-color="accent"></path><path d="M26.734 29.913c-0.907-0.906-2.018-1.362-3.276-1.362-1.263 0-2.373 0.456-3.28 1.362-0.909 0.908-1.362 2.018-1.362 3.28 0 1.259 0.453 2.369 1.362 3.279 0.907 0.906 2.018 1.359 3.28 1.359 1.259 0 2.369-0.453 3.276-1.359 0.909-0.91 1.362-2.021 1.362-3.279C28.097 31.93 27.644 30.821 26.734 29.913L26.734 29.913z" fill="#ff851b" data-fill-palette-color="accent"></path><path d="M11.603 29.913c-0.906-0.906-2.017-1.362-3.279-1.362-1.259 0-2.37 0.456-3.276 1.362-0.91 0.908-1.363 2.018-1.363 3.28 0 1.259 0.453 2.369 1.363 3.279 0.906 0.906 2.017 1.359 3.276 1.359 1.262 0 2.373-0.453 3.279-1.359 0.909-0.91 1.362-2.021 1.362-3.279C12.965 31.93 12.512 30.821 11.603 29.913L11.603 29.913z" fill="#ff851b" data-fill-palette-color="accent"></path></svg></g></svg></g></svg></g><defs></defs></svg><rect width="395.52" height="69.58967378845267" fill="none" stroke="none" visibility="hidden"></rect></g></svg></g></svg>